<svg id="Layer_1" data-name="Layer 1" xmlns="http://www.w3.org/2000/svg" viewBox="0 0 512 512"><title>fast-rewind-glyph</title><path d="M491.16,431.3c11.68,0,20.84-9.49,20.84-21.61V102.3c0-12.12-9.15-21.6-20.84-21.6a22.55,22.55,0,0,0-11.23,3.09L247.84,237.48a21,21,0,0,0,0,37L479.93,428.21a22.54,22.54,0,0,0,11.23,3.09Z" fill="#434040"/><path d="M309.19,431.3c11.68,0,20.84-9.49,20.84-21.61V102.3c0-12.12-9.15-21.6-20.84-21.6A22.55,22.55,0,0,0,298,83.79L65.87,237.48a21,21,0,0,0,0,37L298,428.21a22.54,22.54,0,0,0,11.23,3.09Z" fill="#434040"/><path d="M42.68,423.78a42.68,42.68,0,0,0,42.68-42.67V130.89a42.68,42.68,0,0,0-85.36,0V381.11A42.68,42.68,0,0,0,42.68,423.78Z" fill="#434040"/></svg>